<svg width="24" height="14" viewBox="0 0 24 14" fill="none" xmlns="http://www.w3.org/2000/svg">
<g clip-path="url(#clip0_90_2165)">
<path opacity="0.07" d="M22.1053 0H1.89474C0.821053 0 0 0.758333 0 1.75V12.25C0 13.2417 0.88421 14 1.89474 14H22.1053C23.1789 14 24 13.2417 24 12.25V1.75C24 0.758333 23.1158 0 22.1053 0Z" fill="black"/>
<path d="M22.1055 0.583344C22.8003 0.583344 23.3687 1.10834 23.3687 1.75001V12.25C23.3687 12.8917 22.8003 13.4167 22.1055 13.4167H1.89499C1.20026 13.4167 0.631836 12.8917 0.631836 12.25V1.75001C0.631836 1.10834 1.20026 0.583344 1.89499 0.583344H22.1055Z" fill="#006FCF"/>
<path d="M5.66595 5.98966L6.15479 7.08399H5.18089L5.66595 5.98966ZM15.8186 6.03516H13.9384V6.51757H15.7883V7.24032H13.9422V7.77816H15.8224V8.20924L17.1342 6.89966L15.8224 5.53466L15.8186 6.03516ZM6.93668 4.67016H9.45984L10.0201 5.79891L10.5392 4.66666H17.0887L17.7695 5.36082L18.4737 4.66666H21.4819L19.2594 6.91366L21.4592 9.14666H18.4062L17.7253 8.45249L17.0148 9.14666H6.33479L6.02279 8.45249H5.3091L4.99647 9.14666H2.52637L4.60174 4.66666H6.76805L6.93668 4.67016ZM12.4081 5.29899H10.9939L10.0466 7.36166L9.02026 5.29899H7.61689V8.10482L6.31584 5.29899H5.0571L3.55268 8.51432H4.53479L4.84679 7.82016H6.48637L6.79837 8.51432H8.51626V6.21891L9.62216 8.51782H10.3737L11.4727 6.22591V8.51841H12.3935L12.4087 5.29841L12.4081 5.29899ZM18.307 6.91366L19.9055 5.29899H18.7548L17.7436 6.30582L16.7659 5.29899H13.0434V8.51782H16.7129L17.7323 7.50399L18.7099 8.51782H19.8942L18.3076 6.91366H18.307Z" fill="white"/>
</g>
<defs>
<clipPath id="clip0_90_2165">
<rect width="24" height="14" fill="white"/>
</clipPath>
</defs>
</svg>
