<svg width="24" height="14" viewBox="0 0 24 14" fill="none" xmlns="http://www.w3.org/2000/svg">
<g clip-path="url(#clip0_90_2143)">
<path opacity="0.07" d="M22.1053 0H1.89474C0.821053 0 0 0.758333 0 1.75V12.25C0 13.2417 0.88421 14 1.89474 14H22.1053C23.1789 14 24 13.2417 24 12.25V1.75C24 0.758333 23.1158 0 22.1053 0Z" fill="black"/>
<path d="M22.1055 0.583344C22.8003 0.583344 23.3687 1.10834 23.3687 1.75001V12.25C23.3687 12.8917 22.8003 13.4167 22.1055 13.4167H1.89499C1.20026 13.4167 0.631836 12.8917 0.631836 12.25V1.75001C0.631836 1.10834 1.20026 0.583344 1.89499 0.583344H22.1055Z" fill="white"/>
<path d="M9.47379 11.0833C11.9155 11.0833 13.8948 9.25515 13.8948 6.99999C13.8948 4.74483 11.9155 2.91666 9.47379 2.91666C7.03211 2.91666 5.05273 4.74483 5.05273 6.99999C5.05273 9.25515 7.03211 11.0833 9.47379 11.0833Z" fill="#EB001B"/>
<path d="M14.5265 11.0833C16.9682 11.0833 18.9476 9.25515 18.9476 6.99999C18.9476 4.74483 16.9682 2.91666 14.5265 2.91666C12.0848 2.91666 10.1055 4.74483 10.1055 6.99999C10.1055 9.25515 12.0848 11.0833 14.5265 11.0833Z" fill="#FFC000"/>
<path d="M13.8949 6.99999C13.8949 5.59999 13.137 4.37499 12.0002 3.67499C10.8634 4.43332 10.1055 5.65832 10.1055 6.99999C10.1055 8.34165 10.8634 9.62499 12.0002 10.325C13.137 9.62499 13.8949 8.39999 13.8949 6.99999Z" fill="#FF5F00"/>
</g>
<defs>
<clipPath id="clip0_90_2143">
<rect width="24" height="14" fill="white"/>
</clipPath>
</defs>
</svg>
