<svg width="24" height="14" viewBox="0 0 24 14" fill="none" xmlns="http://www.w3.org/2000/svg">
<g clip-path="url(#clip0_90_2136)">
<path opacity="0.07" d="M22.1053 0H1.89474C0.821053 0 0 0.758333 0 1.75V12.25C0 13.2417 0.88421 14 1.89474 14H22.1053C23.1789 14 24 13.2417 24 12.25V1.75C24 0.758333 23.1158 0 22.1053 0Z" fill="black"/>
<path d="M22.1055 0.583344C22.8003 0.583344 23.3687 1.10834 23.3687 1.75001V12.25C23.3687 12.8917 22.8003 13.4167 22.1055 13.4167H1.89499C1.20026 13.4167 0.631836 12.8917 0.631836 12.25V1.75001C0.631836 1.10834 1.20026 0.583344 1.89499 0.583344H22.1055Z" fill="white"/>
<path d="M15.0944 4.84166C15.2207 4.25832 15.0944 3.84999 14.7155 3.49999C14.3365 3.09166 13.6418 2.91666 12.7576 2.91666H10.1681C9.97864 2.91666 9.85232 3.03332 9.78917 3.20832L8.8418 9.09999C8.8418 9.21666 8.90495 9.33332 9.03127 9.33332H10.7365L10.9892 7.34999L12.126 6.06666L15.0944 4.84166Z" fill="#003087"/>
<path d="M15.0949 4.84167L14.9686 4.95834C14.6528 6.59167 13.5791 7.17501 12.0633 7.17501H11.3686C11.1791 7.17501 11.0528 7.29167 10.9896 7.46667L10.6107 9.74167L10.4844 10.325C10.4844 10.4417 10.5475 10.5583 10.6738 10.5583H12.0002C12.1896 10.5583 12.316 10.4417 12.316 10.325V10.2667L12.5686 8.86667V8.80834C12.5686 8.69167 12.7581 8.57501 12.8844 8.57501H13.0738C14.4002 8.57501 15.4107 8.10834 15.6633 6.70834C15.7896 6.12501 15.7265 5.65834 15.4107 5.30834C15.3475 5.01667 15.2212 4.90001 15.0949 4.84167Z" fill="#3086C8"/>
<path d="M14.7156 4.72499C14.6524 4.66665 14.5893 4.66665 14.5261 4.66665C14.4629 4.66665 14.3998 4.66665 14.3366 4.60832C14.1472 4.54999 13.8945 4.54999 13.6419 4.54999H11.7472C11.684 4.54999 11.6208 4.54999 11.6208 4.60832C11.4945 4.66665 11.4314 4.72499 11.4314 4.84165L10.9893 7.40832V7.46665C10.9893 7.29165 11.1787 7.17499 11.3682 7.17499H12.1893C13.7682 7.17499 14.7787 6.59165 15.0945 4.95832V4.84165C15.0314 4.78332 14.905 4.72499 14.7787 4.72499H14.7156Z" fill="#012169"/>
</g>
<defs>
<clipPath id="clip0_90_2136">
<rect width="24" height="14" fill="white"/>
</clipPath>
</defs>
</svg>
