<svg width="68" height="12" viewBox="0 0 68 12" fill="none" xmlns="http://www.w3.org/2000/svg">
<path d="M10.6423 4.13774L7.66689 3.70531L6.33681 1.00883C6.30048 0.935002 6.24072 0.875236 6.16689 0.838908C5.98173 0.747502 5.75673 0.823674 5.66415 1.00883L4.33407 3.70531L1.35868 4.13774C1.27665 4.14946 1.20165 4.18813 1.14423 4.24672C1.07481 4.31807 1.03656 4.41407 1.03787 4.51361C1.03919 4.61315 1.07998 4.70809 1.15126 4.77758L3.304 6.87641L2.7954 9.84008C2.78348 9.90902 2.7911 9.97993 2.81742 10.0448C2.84374 10.1096 2.8877 10.1657 2.94431 10.2068C3.00092 10.248 3.06792 10.2724 3.13771 10.2774C3.20749 10.2823 3.27728 10.2677 3.33915 10.235L6.00048 8.83578L8.66181 10.235C8.73447 10.2737 8.81884 10.2866 8.8997 10.2725C9.10361 10.2373 9.24072 10.044 9.20556 9.84008L8.69697 6.87641L10.8497 4.77758C10.9083 4.72016 10.947 4.64516 10.9587 4.56313C10.9903 4.35805 10.8474 4.16821 10.6423 4.13774Z" fill="#FFC000"/>
<path d="M24.6408 4.13774L21.6654 3.70531L20.3353 1.00883C20.299 0.935002 20.2393 0.875236 20.1654 0.838908C19.9803 0.747502 19.7553 0.823674 19.6627 1.00883L18.3326 3.70531L15.3572 4.13774C15.2752 4.14946 15.2002 4.18813 15.1428 4.24672C15.0733 4.31807 15.0351 4.41407 15.0364 4.51361C15.0377 4.61315 15.0785 4.70809 15.1498 4.77758L17.3025 6.87641L16.7939 9.84008C16.782 9.90902 16.7896 9.97993 16.816 10.0448C16.8423 10.1096 16.8862 10.1657 16.9428 10.2068C16.9995 10.248 17.0665 10.2724 17.1362 10.2774C17.206 10.2823 17.2758 10.2677 17.3377 10.235L19.999 8.83578L22.6603 10.235C22.733 10.2737 22.8174 10.2866 22.8982 10.2725C23.1021 10.2373 23.2393 10.044 23.2041 9.84008L22.6955 6.87641L24.8482 4.77758C24.9068 4.72016 24.9455 4.64516 24.9572 4.56313C24.9889 4.35805 24.8459 4.16821 24.6408 4.13774Z" fill="#FFC000"/>
<path d="M38.6408 4.13774L35.6654 3.70531L34.3353 1.00883C34.299 0.935002 34.2393 0.875236 34.1654 0.838908C33.9803 0.747502 33.7553 0.823674 33.6627 1.00883L32.3326 3.70531L29.3572 4.13774C29.2752 4.14946 29.2002 4.18813 29.1428 4.24672C29.0733 4.31807 29.0351 4.41407 29.0364 4.51361C29.0377 4.61315 29.0785 4.70809 29.1498 4.77758L31.3025 6.87641L30.7939 9.84008C30.782 9.90902 30.7896 9.97993 30.816 10.0448C30.8423 10.1096 30.8862 10.1657 30.9428 10.2068C30.9995 10.248 31.0665 10.2724 31.1362 10.2774C31.206 10.2823 31.2758 10.2677 31.3377 10.235L33.999 8.83578L36.6603 10.235C36.733 10.2737 36.8174 10.2866 36.8982 10.2725C37.1021 10.2373 37.2393 10.044 37.2041 9.84008L36.6955 6.87641L38.8482 4.77758C38.9068 4.72016 38.9455 4.64516 38.9572 4.56313C38.9889 4.35805 38.8459 4.16821 38.6408 4.13774Z" fill="#FFC000"/>
<path d="M52.6423 4.13774L49.6669 3.70531L48.3368 1.00883C48.3005 0.935002 48.2407 0.875236 48.1669 0.838908C47.9817 0.747502 47.7567 0.823674 47.6642 1.00883L46.3341 3.70531L43.3587 4.13774C43.2767 4.14946 43.2017 4.18813 43.1442 4.24672C43.0748 4.31807 43.0366 4.41407 43.0379 4.51361C43.0392 4.61315 43.08 4.70809 43.1513 4.77758L45.304 6.87641L44.7954 9.84008C44.7835 9.90902 44.7911 9.97993 44.8174 10.0448C44.8437 10.1096 44.8877 10.1657 44.9443 10.2068C45.0009 10.248 45.0679 10.2724 45.1377 10.2774C45.2075 10.2823 45.2773 10.2677 45.3392 10.235L48.0005 8.83578L50.6618 10.235C50.7345 10.2737 50.8188 10.2866 50.8997 10.2725C51.1036 10.2373 51.2407 10.044 51.2056 9.84008L50.697 6.87641L52.8497 4.77758C52.9083 4.72016 52.947 4.64516 52.9587 4.56313C52.9903 4.35805 52.8474 4.16821 52.6423 4.13774Z" fill="#FFC000"/>
<path d="M66.6408 4.13774L63.6654 3.70531L62.3353 1.00883C62.299 0.935002 62.2393 0.875236 62.1654 0.838908C61.9803 0.747502 61.7553 0.823674 61.6627 1.00883L60.3326 3.70531L57.3572 4.13774C57.2752 4.14946 57.2002 4.18813 57.1428 4.24672C57.0733 4.31807 57.0351 4.41407 57.0364 4.51361C57.0377 4.61315 57.0785 4.70809 57.1498 4.77758L59.3025 6.87641L58.7939 9.84008C58.782 9.90902 58.7896 9.97993 58.816 10.0448C58.8423 10.1096 58.8862 10.1657 58.9428 10.2068C58.9995 10.248 59.0665 10.2724 59.1362 10.2774C59.206 10.2823 59.2758 10.2677 59.3377 10.235L61.999 8.83578L64.6603 10.235C64.733 10.2737 64.8174 10.2866 64.8982 10.2725C65.1021 10.2373 65.2393 10.044 65.2041 9.84008L64.6955 6.87641L66.8482 4.77758C66.9068 4.72016 66.9455 4.64516 66.9572 4.56313C66.9889 4.35805 66.8459 4.16821 66.6408 4.13774Z" fill="#FFC000"/>
</svg>
