<svg width="24" height="14" viewBox="0 0 24 14" fill="none" xmlns="http://www.w3.org/2000/svg">
<g clip-path="url(#clip0_90_2126)">
<path opacity="0.07" d="M22.1053 0H1.89474C0.821053 0 0 0.758333 0 1.75V12.25C0 13.2417 0.88421 14 1.89474 14H22.1053C23.1789 14 24 13.2417 24 12.25V1.75C24 0.758333 23.1158 0 22.1053 0Z" fill="black"/>
<path d="M22.1055 0.583344C22.8003 0.583344 23.3687 1.10834 23.3687 1.75001V12.25C23.3687 12.8917 22.8003 13.4167 22.1055 13.4167H1.89499C1.20026 13.4167 0.631836 12.8917 0.631836 12.25V1.75001C0.631836 1.10834 1.20026 0.583344 1.89499 0.583344H22.1055Z" fill="white"/>
<path d="M17.874 5.89166H17.6845C17.4319 6.47499 17.2424 6.76666 17.0529 7.64166H18.2529C18.0635 6.76666 18.0635 6.35832 17.874 5.89166ZM19.7056 9.33332H18.6319C18.5687 9.33332 18.5687 9.33332 18.5056 9.27499L18.3793 8.74999L18.3161 8.63332H16.8003C16.7372 8.63332 16.674 8.63332 16.674 8.74999L16.4845 9.27499C16.4845 9.33332 16.4214 9.33332 16.4214 9.33332H15.095L15.2214 9.04166L17.0529 5.07499C17.0529 4.78332 17.2424 4.66666 17.5582 4.66666H18.5056C18.5687 4.66666 18.6319 4.66666 18.6319 4.78332L19.5161 8.57499C19.5793 8.80832 19.6424 8.98332 19.6424 9.21666C19.7056 9.27499 19.7056 9.27499 19.7056 9.33332ZM11.2424 9.15832L11.495 8.10832C11.5582 8.10832 11.6214 8.16666 11.6214 8.16666C12.0635 8.34166 12.5056 8.45832 12.9477 8.39999C13.074 8.39999 13.2635 8.34166 13.3898 8.28332C13.7056 8.16666 13.7056 7.87499 13.4529 7.64166C13.3266 7.52499 13.1371 7.46666 12.9477 7.34999C12.695 7.23332 12.4424 7.11666 12.2529 6.94166C11.495 6.35832 11.7477 5.54166 12.1898 5.13332C12.5687 4.89999 12.7582 4.66666 13.2635 4.66666C14.0214 4.66666 14.8424 4.66666 15.2214 4.78332H15.2845C15.2214 5.13332 15.1582 5.42499 15.0319 5.77499C14.7161 5.65832 14.4003 5.54166 14.0845 5.54166C13.895 5.54166 13.7056 5.54166 13.5161 5.59999C13.3898 5.59999 13.3266 5.65832 13.2635 5.71666C13.1371 5.83332 13.1371 6.00832 13.2635 6.12499L13.5793 6.35832C13.8319 6.47499 14.0845 6.59166 14.274 6.70832C14.5898 6.88332 14.9056 7.17499 14.9687 7.52499C15.095 8.04999 14.9056 8.51666 14.4003 8.86666C14.0845 9.09999 13.9582 9.21666 13.5161 9.21666C12.6319 9.21666 11.9372 9.27499 11.3687 9.09999C11.3056 9.21666 11.3056 9.21666 11.2424 9.15832ZM9.03189 9.33332C9.09505 8.92499 9.09505 8.92499 9.1582 8.74999C9.47399 7.46666 9.78978 6.12499 10.0424 4.84166C10.1056 4.72499 10.1056 4.66666 10.2319 4.66666H11.3687C11.2424 5.36666 11.1161 5.89166 10.9266 6.53332C10.7371 7.40832 10.5477 8.28332 10.295 9.15832C10.295 9.27499 10.2319 9.27499 10.1056 9.27499M3.1582 4.78332C3.1582 4.72499 3.28452 4.66666 3.34768 4.66666H5.49504C5.81083 4.66666 6.06347 4.84166 6.12662 5.13332L6.69505 7.69999C6.69505 7.75832 6.69504 7.75832 6.7582 7.81666C6.7582 7.75832 6.82136 7.75832 6.82136 7.75832L8.14768 4.78332C8.08452 4.72499 8.14768 4.66666 8.21083 4.66666H9.53715C9.53715 4.72499 9.53715 4.72499 9.47399 4.78332L7.5161 9.04166C7.45294 9.15832 7.45294 9.21666 7.38978 9.27499C7.32662 9.33332 7.20031 9.27499 7.07399 9.27499H6.12662C6.06347 9.27499 6.00031 9.27499 6.00031 9.15832L4.98978 5.54166C4.86347 5.42499 4.67399 5.24999 4.42136 5.19166C4.04241 5.01666 3.34768 4.89999 3.22136 4.89999L3.1582 4.78332Z" fill="#142688"/>
</g>
<defs>
<clipPath id="clip0_90_2126">
<rect width="24" height="14" fill="white"/>
</clipPath>
</defs>
</svg>
